<svg width="66" height="34" viewBox="0 0 66 34" fill="none" xmlns="http://www.w3.org/2000/svg">
<path opacity="0.1" fill-rule="evenodd" clip-rule="evenodd" d="M0.555359 0.463715H52.7614C60.0029 0.463715 65.8732 6.33406 65.8732 13.5755V20.1314C65.8732 27.3728 60.0029 33.2431 52.7614 33.2431H13.6671C6.42569 33.2431 0.555359 27.3728 0.555359 20.1314V0.463715Z" fill="#CE6847"/>
<path fill-rule="evenodd" clip-rule="evenodd" d="M24.0933 21.2559C26.6278 21.2559 28.6825 19.2013 28.6825 16.6668C28.6825 14.1323 26.6278 12.0776 24.0933 12.0776C21.5588 12.0776 19.5042 14.1323 19.5042 16.6668C19.5042 19.2013 21.5588 21.2559 24.0933 21.2559ZM34.4811 19.2891C35.9294 19.2891 37.1035 18.1151 37.1035 16.6668C37.1035 15.2185 35.9294 14.0444 34.4811 14.0444C33.0328 14.0444 31.8588 15.2185 31.8588 16.6668C31.8588 18.1151 33.0328 19.2891 34.4811 19.2891ZM46.9245 16.6668C46.9245 18.1151 45.7504 19.2891 44.3021 19.2891C42.8538 19.2891 41.6797 18.1151 41.6797 16.6668C41.6797 15.2185 42.8538 14.0444 44.3021 14.0444C45.7504 14.0444 46.9245 15.2185 46.9245 16.6668Z" fill="#CE6847"/>
</svg>
